# xmcd CD database file
# Copyright (C) 2004 Ti Kan
# 
# Track frame offsets:
#     150
#     13178
#     25442
#     39103
#     54366
#     68022
#     79982
#     92290
#     107198
#     119939
#     132496
#     147501
#     161549
#     177369
#     190980
#     203060
#     217069
#     231818
#     243834
#     256463
#     268857
#     282923
# 
# Disc length: 3955 seconds
# 
# Revision: 1
# Processed by: cddbd v1.5.1PL0 Copyright (c) Steve Scherf et al.
# Submitted via: DiscPlay 4.0.4
# 
DISCID=490f7116
DTITLE=Big Bill Broonzy - The Godfather of Chicago Blues
DYEAR=1900
DGENRE=
TTITLE0=How You Want It Done ?
TTITLE1=Mississippi River Blues
TTITLE2=Nancy Jane
TTITLE3=Falling Rain
TTITLE4=Out with the Wrong Woman
TTITLE5=Too Many Drivers
TTITLE6=Midnight Steppers
TTITLE7=Getting Older Every Day
TTITLE8=I Feel So Good
TTITLE9=Roll Them Bones
TTITLE10=Bad Luck Man
TTITLE11=Tomorrow
TTITLE12=Starvation Blues
TTITLE13=C and A Blues
TTITLE14=Pneumonia Blues
TTITLE15=W.P.A. Blues
TTITLE16=Southern Flood Blues
TTITLE17=Unemployment Stomp
TTITLE18=Cotton Choppin' Blues
TTITLE19=In the Army Now
TTITLE20=Just a Dream
TTITLE21=I Love My Whiskey
EXTD=
EXTT0=
EXTT1=
EXTT2=
EXTT3=
EXTT4=
EXTT5=
EXTT6=
EXTT7=
EXTT8=
EXTT9=
EXTT10=
EXTT11=
EXTT12=
EXTT13=
EXTT14=
EXTT15=
EXTT16=
EXTT17=
EXTT18=
EXTT19=
EXTT20=
EXTT21=
PLAYORDER=
